<svg width="187" height="187" viewBox="0 0 187 187" fill="none" xmlns="http://www.w3.org/2000/svg">
<path fill-rule="evenodd" clip-rule="evenodd" d="M81.2545 3.60599C84.1685 1.97118 87.7559 1.97118 90.6655 3.60599C105.063 11.6848 148.389 36.0024 162.79 44.0813C165.704 45.7117 167.498 48.7321 167.498 52.0017C167.498 68.1589 167.498 116.791 167.498 132.948C167.498 136.217 165.704 139.238 162.79 140.873C148.393 148.951 105.067 173.269 90.6655 181.348C87.752 182.983 84.1642 182.983 81.2545 181.348C66.857 173.269 23.5314 148.951 9.12957 140.873C6.21994 139.238 4.42627 136.222 4.42627 132.953C4.42627 116.795 4.42627 68.1632 4.42627 52.0056C4.42627 48.7365 6.21994 45.7161 9.13394 44.0813C23.5271 36.0024 66.8614 11.6848 81.2545 3.60599Z" fill="#283593"/>
<path fill-rule="evenodd" clip-rule="evenodd" d="M5.73072 137.113C4.58951 135.586 4.42627 134.136 4.42627 132.184C4.42627 116.12 4.42627 67.7679 4.42627 51.7001C4.42627 48.448 6.21557 45.4451 9.12082 43.8234C23.4668 35.7917 66.6467 11.6155 80.9927 3.57939C83.8979 1.95333 87.8331 1.98782 90.7384 3.61389C105.085 11.6451 148.118 35.6158 162.464 43.647C163.623 44.2995 164.507 45.0846 165.297 46.1185L5.73072 137.113Z" fill="#5C6BC0"/>
<path fill-rule="evenodd" clip-rule="evenodd" d="M85.9623 32.4121C119.122 32.4121 146.042 59.3255 146.042 92.4774C146.042 125.629 119.122 152.543 85.9623 152.543C52.8031 152.543 25.8834 125.629 25.8834 92.4774C25.8834 59.3255 52.8031 32.4121 85.9623 32.4121ZM85.9623 62.4445C102.54 62.4445 116.002 75.8995 116.002 92.4774C116.002 109.051 102.54 122.51 85.9623 122.51C69.3849 122.51 55.9226 109.051 55.9226 92.4774C55.9226 75.8995 69.3805 62.4445 85.9623 62.4445Z" fill="white"/>
<path fill-rule="evenodd" clip-rule="evenodd" d="M165.288 46.1602C167.503 48.2327 167.46 51.3561 167.46 53.8144C167.46 70.0964 167.322 116.407 167.498 132.689C167.516 134.388 166.954 136.177 166.112 137.524L84.2158 92.4751L165.288 46.1602Z" fill="#3949AB"/>
<path fill-rule="evenodd" clip-rule="evenodd" d="M128.876 75.3135H133.167V109.636H128.876V75.3135ZM141.75 75.3135H146.042V109.636H141.75V75.3135Z" fill="white"/>
<path fill-rule="evenodd" clip-rule="evenodd" d="M120.293 96.7665H154.624V101.057H120.293V96.7665ZM120.293 83.8955H154.624V88.1859H120.293V83.8955Z" fill="white"/>
</svg>
