<svg width="128" height="128" viewBox="0 0 128 128" fill="none" xmlns="http://www.w3.org/2000/svg">
<path d="M124.801 52.1C120.501 49.6 114.801 49.3 110.001 50.7C109.401 45.5 106.001 41 102.001 37.8L100.401 36.5L99.0012 38.1C96.3012 41.2 95.5012 46.4 95.9012 50.4C96.2012 53.3 97.1012 56.3 98.9012 58.7C97.5012 59.5 96.0012 60.6 94.6012 61.1C91.8012 62.1 88.7012 63.1 85.7012 63.1H79.0012V49H66.0012V24H51.0012V36H26.0012V49H13.0012V63H1.80116L1.60116 64.5C1.10116 70.9 1.90116 77.1 4.60116 83L5.70116 85.2L5.80116 85.4C13.7012 98.8 27.5012 104.4 42.6012 104.4C71.8012 104.4 95.9012 91.3 106.901 63.8C114.301 64.2 121.901 62 125.501 54.9L126.401 53.1L124.801 52.1V52.1ZM28.0012 39H38.0012V50H28.0012V39ZM41.1012 83.2C41.1012 84.9 39.7012 86.3 38.0012 86.3C36.3012 86.3 34.9012 84.9 34.9012 83.2C34.9012 81.5 36.3012 80.1 38.0012 80.1C39.7012 80.2 41.1012 81.5 41.1012 83.2ZM28.0012 52H38.0012V63H28.0012V52ZM15.0012 52H26.0012V63H15.0012V52ZM42.7012 102.2C26.9012 102.1 18.4012 96.8 11.4012 89.8C13.5012 89.9 15.5012 90 17.3012 90C18.9012 90 20.5012 90 22.0012 89.9C25.9012 89.7 29.3012 89.2 32.1012 88.4C34.4012 93.7 38.6012 98.6 46.1012 102.2H42.7012ZM51.0012 63H40.0012V52H51.0012V63ZM51.0012 50H40.0012V39H51.0012V50ZM64.0012 63H53.0012V52H64.0012V63ZM64.0012 50H53.0012V39H64.0012V50ZM64.0012 37H53.0012V26H64.0012V37ZM77.0012 63H66.0012V52H77.0012V63ZM38.8012 81.2C38.6012 81.1 38.3012 81 38.0012 81C36.8012 81 35.8012 82 35.8012 83.2C35.8012 84.4 36.8012 85.4 38.0012 85.4C39.2012 85.4 40.2012 84.4 40.2012 83.2C40.2012 82.9 40.1012 82.6 40.0012 82.4C39.8012 82.7 39.6012 82.9 39.2012 82.9C38.7012 82.9 38.3012 82.5 38.3012 82C38.4012 81.6 38.6012 81.3 38.8012 81.2V81.2Z" fill="#019BC6"/>
</svg>
