<svg width="24" height="24" viewBox="0 0 24 24" fill="none" xmlns="http://www.w3.org/2000/svg">
<g clip-path="url(#clip0_534_33)">
<path d="M23.75 0.25H0.25V23.75H23.75V0.25Z" fill="#512BD4"/>
<path d="M4.43853 15.2639C4.27236 15.2639 4.13113 15.2085 4.01481 15.0978C3.89851 14.9842 3.84033 14.8493 3.84033 14.6932C3.84033 14.5341 3.89851 14.3979 4.01481 14.2843C4.13113 14.1707 4.27236 14.1139 4.43853 14.1139C4.60746 14.1139 4.75008 14.1707 4.86638 14.2843C4.98548 14.3979 5.04501 14.5341 5.04501 14.6932C5.04501 14.8493 4.98548 14.9842 4.86638 15.0978C4.75008 15.2085 4.60746 15.2639 4.43853 15.2639ZM11.081 15.1702H10.001L7.15546 10.681C7.08346 10.5674 7.02388 10.4496 6.97683 10.3275H6.95191L6.95618 10.3556L6.96018 10.3877L6.96386 10.4237L6.96726 10.4638L6.97181 10.5313L6.97568 10.6077L6.97891 10.6931L6.98146 10.7875L6.98333 10.8907L6.98421 10.9646L6.98513 11.1665V15.1702H6.02968V9.0625H7.18036L9.93036 13.4452L9.99831 13.5525L10.042 13.6229L10.0795 13.685L10.1108 13.7385L10.1282 13.7694L10.1428 13.7966L10.1547 13.82H10.1713L10.1682 13.8008L10.1623 13.7595L10.1569 13.7142L10.152 13.6649C10.1512 13.6564 10.1504 13.6476 10.1497 13.6388L10.1455 13.5835L10.1418 13.5243L10.1386 13.461L10.1347 13.3587L10.132 13.2474L10.1303 13.1272L10.1298 12.998V9.0625H11.081V15.1702ZM15.7337 15.1702H12.3897V9.0625H15.6008V9.92288H13.3784V11.6521H15.4264V12.5082H13.3784V14.3141H15.7337V15.1702ZM20.4862 9.92288H18.7747V15.1702H17.786V9.92288H16.0787V9.0625H20.4862V9.92288Z" fill="white"/>
</g>
<defs>
<clipPath id="clip0_534_33">
<rect width="24" height="24" rx="4" fill="white"/>
</clipPath>
</defs>
</svg>
