<svg width="128" height="128" viewBox="0 0 128 128" fill="none" xmlns="http://www.w3.org/2000/svg">
<path d="M1.40625 1.40625H126.59V126.591H1.40625V1.40625Z" fill="#F0DB4F"/>
<path d="M116.346 96.7329C115.429 91.0219 111.705 86.2249 100.674 81.7519C96.8416 79.9909 92.5696 78.7299 91.2966 75.8259C90.8446 74.1359 90.7846 73.1839 91.0706 72.1609C91.8916 68.8409 95.8546 67.8059 98.9956 68.7579C101.019 69.4359 102.934 70.9949 104.089 73.4819C109.491 69.9839 109.48 70.0069 113.252 67.6029C111.871 65.4619 111.134 64.4739 110.23 63.5579C106.981 59.9289 102.554 58.0599 95.4736 58.2029L91.7856 58.6799C88.2516 59.5729 84.8836 61.4279 82.9086 63.9149C76.9826 70.6389 78.6726 82.4069 85.8836 87.2499C92.9876 92.5819 103.424 93.7949 104.757 98.7809C106.054 104.885 100.271 106.861 94.5226 106.159C90.2866 105.278 87.9306 103.125 85.3836 99.2099C80.6956 101.923 80.6956 101.923 75.8756 104.695C77.0186 107.194 78.2196 108.325 80.1356 110.49C89.2036 119.688 111.896 119.236 115.966 105.314C116.131 104.836 117.227 101.648 116.346 96.7329V96.7329ZM69.4606 58.9399H57.7516L57.7036 89.2119C57.7036 95.6499 58.0366 101.552 56.9896 103.361C55.2766 106.919 50.8376 106.478 48.8146 105.788C46.7556 104.776 45.7086 103.337 44.4956 101.303C44.1626 100.719 43.9126 100.267 43.8286 100.232L34.3086 106.062C35.8916 109.311 38.2236 112.131 41.2106 113.963C45.6726 116.641 51.6696 117.462 57.9416 116.022C62.0236 114.833 65.5456 112.37 67.3896 108.621C70.0556 103.706 69.4836 97.7569 69.4596 91.1769C69.5196 80.4419 69.4606 69.7089 69.4606 58.9399V58.9399Z" fill="#323330"/>
</svg>
